<?xml version="1.0" encoding="utf-8"?>
<!-- Generator: Adobe Illustrator 28.1.0, SVG Export Plug-In . SVG Version: 6.00 Build 0)  -->
<svg version="1.1" id="Layer_1" xmlns="http://www.w3.org/2000/svg" xmlns:xlink="http://www.w3.org/1999/xlink" x="0px" y="0px"
	 width="290.5px" height="50px" viewBox="0 0 290.5 50" style="enable-background:new 0 0 290.5 50;" xml:space="preserve">
<style type="text/css">
	.st0{clip-path:url(#SVGID_00000149382461614641169100000014102154759322348703_);fill:#FDF6ED;}
	.st1{fill:#FDF6ED;}
</style>
<g>
	<defs>
		<rect id="SVGID_1_" width="280" height="50"/>
	</defs>
	<clipPath id="SVGID_00000178197839853835945990000017971769893955423883_">
		<use xlink:href="#SVGID_1_"  style="overflow:visible;"/>
	</clipPath>
	<path style="clip-path:url(#SVGID_00000178197839853835945990000017971769893955423883_);fill:#FDF6ED;" d="M31,36.9L6.1,25.3
		c-0.5-0.2-1-0.3-1.5-0.1c-0.5,0.2-0.9,0.5-1.1,1c-0.2,0.5-0.3,1-0.1,1.5c0.2,0.5,0.5,0.9,1,1.1l16.9,7.9H2c-1.1,0-2,0.9-2,2
		s0.9,2,2,2h28.1c1.1,0,2-0.9,2-2c0-0.3-0.1-0.6-0.2-0.8C31.7,37.5,31.4,37.2,31,36.9z"/>
	<path style="clip-path:url(#SVGID_00000178197839853835945990000017971769893955423883_);fill:#FDF6ED;" d="M65.7,17.7
		c0.4-0.3,0.7-0.8,0.7-1.3c0.1-0.5-0.1-1.1-0.4-1.5c-0.7-0.9-1.9-1-2.8-0.3L48.6,26.1l8.5-16.7c0.3-0.5,0.3-1,0.1-1.5
		c-0.1-0.5-0.5-0.9-1-1.2c-0.5-0.3-1-0.3-1.5-0.1c-0.5,0.2-0.9,0.5-1.2,1L41.1,32.1c-0.2,0.3-0.3,0.7-0.2,1.1v0c0,0,0,0.1,0,0.1
		c0,0.4,0.2,0.7,0.4,1c0.3,0.4,0.8,0.7,1.3,0.7c0.1,0,0.2,0,0.3,0c0.4,0,0.9-0.1,1.2-0.4L65.7,17.7z"/>
	<path style="clip-path:url(#SVGID_00000178197839853835945990000017971769893955423883_);fill:#FDF6ED;" d="M21.9,7.6
		c-0.3-0.5-0.7-0.8-1.2-1c-0.5-0.2-1-0.1-1.5,0.1c-0.5,0.3-0.8,0.7-1,1.2c-0.1,0.5-0.1,1,0.1,1.5L26.8,26L12.1,14.6
		c-0.9-0.7-2.1-0.5-2.8,0.3c-0.3,0.4-0.5,0.9-0.4,1.5c0.1,0.5,0.3,1,0.7,1.3l21.7,16.9c0.4,0.3,0.8,0.4,1.2,0.4c0.1,0,0.2,0,0.3,0
		c0.5-0.1,1-0.3,1.3-0.7c0.2-0.3,0.4-0.6,0.4-0.9c0,0,0-0.1,0-0.1c0-0.4,0-0.7-0.2-1.1L21.9,7.6z"/>
	<path style="clip-path:url(#SVGID_00000178197839853835945990000017971769893955423883_);fill:#FDF6ED;" d="M43.9,0
		c-1.1-0.2-2.1,0.4-2.4,1.5l-4,18.2l-4-18.2c-0.1-0.5-0.4-0.9-0.9-1.2s-1-0.4-1.5-0.3c-1.1,0.2-1.7,1.3-1.5,2.4l5.8,26.8
		c0.2,0.9,1,1.6,2,1.6h0c0.9,0,1.7-0.7,1.9-1.6l5.8-26.8C45.7,1.3,45,0.3,43.9,0z"/>
	<path style="clip-path:url(#SVGID_00000178197839853835945990000017971769893955423883_);fill:#FDF6ED;" d="M73.3,36.8H54l16.9-7.9
		c0.5-0.2,0.8-0.6,1-1.1s0.1-1-0.1-1.5c-0.2-0.5-0.6-0.8-1.1-1c-0.5-0.2-1-0.1-1.5,0.1L44.3,36.9c-0.8,0.3-1.3,1-1.3,1.8
		c0,1.1,0.9,2,2,2h28.1c1.1,0,2-0.9,2-2C75.2,37.7,74.3,36.8,73.3,36.8z"/>
	<path style="clip-path:url(#SVGID_00000178197839853835945990000017971769893955423883_);fill:#FDF6ED;" d="M94.5,28.9
		c2.4,4.7,6.9,7.4,11.9,7.4c5,0,9-2.5,9-7c0-4.7-4.5-5.5-10.5-7c-6.1-1.5-12.2-3.2-12.2-10.5C92.7,5,98.6,0.6,106,0.6
		c6.8,0,11.7,3.3,14.1,7.7l-4,3.2c-2-3.7-5.1-6.3-10.2-6.3c-4.7,0-8.2,2.6-8.2,6.3c0,4.1,3.6,5,9.2,6.3c6.5,1.5,13.6,2.9,13.6,11.1
		c0,7.3-6.5,11.9-14.2,11.9c-6.8,0-13.2-3.4-15.9-8.6L94.5,28.9z"/>
	<path style="clip-path:url(#SVGID_00000178197839853835945990000017971769893955423883_);fill:#FDF6ED;" d="M124.3,1.2h4.9v13.1
		c0,0.4,0.5,0.7,0.8,0.3c1.7-1.9,4.2-3.4,7.7-3.4c5.3,0,9.5,4.4,9.5,9.6v19.3h-4.9V22.8c0-4-1.7-7-5.9-7c-3.5,0-7.1,2.7-7.1,7.4
		v16.9h-4.9V1.2z"/>
	<path style="clip-path:url(#SVGID_00000178197839853835945990000017971769893955423883_);fill:#FDF6ED;" d="M151,32.6
		c0-5.7,4.4-8,10.8-9.3l5.8-1.2c0.6-0.1,1.1-0.7,1.1-1.3v-0.1c0-3.3-1.8-5.1-5.6-5.1c-3.6,0-5.7,1.7-6.6,4.8l-4.6-1.2
		c1.3-4.6,5.6-7.9,11.4-7.9c6.4,0,10.3,3.1,10.3,9.2v13.9c0,1.8,1.1,2.4,3.1,2v3.9c-4.4,0.5-6.9-0.5-7.4-3.2
		c-1.7,2.2-4.9,3.7-8.8,3.7C155.3,40.7,151,37.7,151,32.6z M168.7,26.7c0-0.5-0.5-0.9-1.1-0.8l-4.5,1c-4.4,0.9-7.3,2.1-7.3,5.5
		c0,2.8,2,4.4,5.1,4.4c4.2,0,7.7-2.5,7.7-6.2V26.7L168.7,26.7z"/>
	<path style="clip-path:url(#SVGID_00000178197839853835945990000017971769893955423883_);fill:#FDF6ED;" d="M194.8,16.6
		c-0.8-0.1-1.5-0.2-2.4-0.2c-4.1,0-7.4,3.3-7.4,8.3v15.6H180V11.8h4.9v3.3c0,0.4,0.5,0.5,0.7,0.2c1.5-2.2,3.9-3.7,7.2-3.7
		c0.8,0,1.5,0,2,0.1V16.6L194.8,16.6z"/>
	<path style="clip-path:url(#SVGID_00000178197839853835945990000017971769893955423883_);fill:#FDF6ED;" d="M203.4,36.1V50h-4.9
		V11.8h4.9v2.8c0,0.4,0.5,0.6,0.7,0.3c1.8-2.2,4.6-3.6,8.1-3.6c7.9,0,12.4,6.7,12.4,14.8c0,8-4.5,14.8-12.4,14.8
		C208.3,40.8,205.2,38.9,203.4,36.1z M203.3,27c0,6.5,4,9.5,8.1,9.5c5.3,0,8.3-4.4,8.3-10.5c0-6.1-3-10.5-8.3-10.5
		c-4,0-8.1,2.9-8.1,9.5V27z"/>
	<path style="clip-path:url(#SVGID_00000178197839853835945990000017971769893955423883_);fill:#FDF6ED;" d="M227.9,26
		c0-8.5,5.4-14.8,13.1-14.8c8,0,12.1,6,12.1,13.9v1.6h-20.6c0.3,6,3.7,9.8,8.6,9.8c3.8,0,6.5-2.1,7.4-5.4l4.3,1.5
		c-1.7,5-6,8.2-11.7,8.2C233.4,40.8,227.9,34.8,227.9,26z M234,23.1h13.4c0.5,0,0.9-0.4,0.8-0.9c-0.4-3.6-2.6-6.7-7.2-6.7
		c-3.8,0-6.8,2.4-7.9,6.5C233,22.5,233.4,23.1,234,23.1z"/>
	<path style="clip-path:url(#SVGID_00000178197839853835945990000017971769893955423883_);fill:#FDF6ED;" d="M257.1,11.8h4.9v2.3
		c0,0.5,0.6,0.8,1,0.4c1.7-1.8,4.2-3.2,7.5-3.2c5.3,0,9.5,4.4,9.5,9.6v19.3h-4.9V22.8c0-4-1.7-7-5.9-7c-3.5,0-7.1,2.7-7.1,7.4v16.9
		h-4.9V11.8z"/>
</g>
<g>
	<path class="st1" d="M289.3,5.3c0,2.4-1.9,4.3-4.4,4.3c-2.4,0-4.4-1.9-4.4-4.3c0-2.4,2-4.3,4.4-4.3C287.4,1,289.3,2.9,289.3,5.3z
		 M281.6,5.3c0,1.9,1.4,3.4,3.3,3.4c1.9,0,3.2-1.5,3.2-3.4c0-1.9-1.4-3.4-3.3-3.4C283,1.9,281.6,3.4,281.6,5.3z M284.2,7.5h-1V3.3
		c0.4-0.1,0.9-0.1,1.6-0.1c0.8,0,1.2,0.1,1.5,0.3c0.2,0.2,0.4,0.5,0.4,0.9c0,0.5-0.4,0.8-0.9,1v0.1c0.4,0.2,0.7,0.5,0.8,1
		c0.1,0.6,0.2,0.9,0.3,1.1h-1.1c-0.1-0.2-0.2-0.5-0.3-1c-0.1-0.5-0.3-0.7-0.9-0.7h-0.5V7.5z M284.2,5.1h0.5c0.5,0,1-0.2,1-0.6
		c0-0.4-0.3-0.6-0.9-0.6c-0.3,0-0.4,0-0.5,0.1V5.1z"/>
</g>
</svg>
